<mxfile host="app.diagrams.net" modified="2023-08-08T13:10:08.269Z" agent="Mozilla/5.0 (Macintosh; Intel Mac OS X 10.15; rv:109.0) Gecko/20100101 Firefox/115.0" etag="jGaQVssk10LGC9yUzryz" version="21.6.6" type="device">
  <diagram name="Page-1" id="KhdKupMTehiZ0b3fJ94T">
    <mxGraphModel dx="763" dy="461" grid="1" gridSize="10" guides="1" tooltips="1" connect="1" arrows="1" fold="1" page="1" pageScale="1" pageWidth="850" pageHeight="1100" math="0" shadow="0">
      <root>
        <mxCell id="0" />
        <mxCell id="1" parent="0" />
        <mxCell id="kJiuvHtMfZ-OtqeLdr8D-12" value="" style="rounded=0;whiteSpace=wrap;html=1;dashed=1;" vertex="1" parent="1">
          <mxGeometry x="200" y="190" width="250" height="250" as="geometry" />
        </mxCell>
        <mxCell id="kJiuvHtMfZ-OtqeLdr8D-61" value="" style="rounded=0;whiteSpace=wrap;html=1;dashed=1;" vertex="1" parent="1">
          <mxGeometry x="220" y="247" width="70" height="133" as="geometry" />
        </mxCell>
        <mxCell id="kJiuvHtMfZ-OtqeLdr8D-31" value="" style="rounded=0;whiteSpace=wrap;html=1;dashed=1;" vertex="1" parent="1">
          <mxGeometry x="450" y="190" width="310" height="250" as="geometry" />
        </mxCell>
        <mxCell id="kJiuvHtMfZ-OtqeLdr8D-56" value="" style="rounded=0;whiteSpace=wrap;html=1;dashed=1;" vertex="1" parent="1">
          <mxGeometry x="610" y="240" width="130" height="190" as="geometry" />
        </mxCell>
        <mxCell id="kJiuvHtMfZ-OtqeLdr8D-57" value="&lt;b&gt;B5&lt;/b&gt;" style="text;html=1;strokeColor=none;fillColor=none;align=center;verticalAlign=middle;whiteSpace=wrap;rounded=0;" vertex="1" parent="1">
          <mxGeometry x="700" y="240" width="40" height="30" as="geometry" />
        </mxCell>
        <mxCell id="kJiuvHtMfZ-OtqeLdr8D-29" value="" style="rounded=0;whiteSpace=wrap;html=1;dashed=1;" vertex="1" parent="1">
          <mxGeometry x="300" y="247" width="130" height="183" as="geometry" />
        </mxCell>
        <mxCell id="kJiuvHtMfZ-OtqeLdr8D-1" value="" style="ellipse;whiteSpace=wrap;html=1;aspect=fixed;fillColor=#f5f5f5;fontColor=#333333;strokeColor=#666666;" vertex="1" parent="1">
          <mxGeometry x="280" y="200" width="40" height="40" as="geometry" />
        </mxCell>
        <mxCell id="kJiuvHtMfZ-OtqeLdr8D-2" value="" style="ellipse;whiteSpace=wrap;html=1;aspect=fixed;fillColor=#fff2cc;strokeColor=#d6b656;" vertex="1" parent="1">
          <mxGeometry x="240" y="260" width="40" height="40" as="geometry" />
        </mxCell>
        <mxCell id="kJiuvHtMfZ-OtqeLdr8D-3" value="" style="ellipse;whiteSpace=wrap;html=1;aspect=fixed;fillColor=#e1d5e7;strokeColor=#9673a6;" vertex="1" parent="1">
          <mxGeometry x="320" y="260" width="40" height="40" as="geometry" />
        </mxCell>
        <mxCell id="kJiuvHtMfZ-OtqeLdr8D-8" value="" style="ellipse;whiteSpace=wrap;html=1;aspect=fixed;fillColor=#e1d5e7;strokeColor=#9673a6;" vertex="1" parent="1">
          <mxGeometry x="320" y="320" width="40" height="40" as="geometry" />
        </mxCell>
        <mxCell id="kJiuvHtMfZ-OtqeLdr8D-10" value="" style="ellipse;whiteSpace=wrap;html=1;aspect=fixed;fillColor=#e1d5e7;strokeColor=#9673a6;" vertex="1" parent="1">
          <mxGeometry x="380" y="320" width="40" height="40" as="geometry" />
        </mxCell>
        <mxCell id="kJiuvHtMfZ-OtqeLdr8D-11" value="" style="ellipse;whiteSpace=wrap;html=1;aspect=fixed;fillColor=#fff2cc;strokeColor=#d6b656;" vertex="1" parent="1">
          <mxGeometry x="240" y="320" width="40" height="40" as="geometry" />
        </mxCell>
        <mxCell id="kJiuvHtMfZ-OtqeLdr8D-18" value="" style="endArrow=classic;html=1;rounded=0;exitX=1.05;exitY=0.9;exitDx=0;exitDy=0;exitPerimeter=0;fillColor=#e1d5e7;strokeColor=#9673a6;" edge="1" parent="1">
          <mxGeometry width="50" height="50" relative="1" as="geometry">
            <mxPoint x="364" y="296" as="sourcePoint" />
            <mxPoint x="384" y="315" as="targetPoint" />
          </mxGeometry>
        </mxCell>
        <mxCell id="kJiuvHtMfZ-OtqeLdr8D-20" value="" style="ellipse;whiteSpace=wrap;html=1;aspect=fixed;fillColor=#e1d5e7;strokeColor=#9673a6;" vertex="1" parent="1">
          <mxGeometry x="320" y="380" width="40" height="40" as="geometry" />
        </mxCell>
        <mxCell id="kJiuvHtMfZ-OtqeLdr8D-24" value="" style="endArrow=classic;html=1;rounded=0;exitX=1.05;exitY=0.9;exitDx=0;exitDy=0;exitPerimeter=0;fillColor=#f5f5f5;strokeColor=#666666;" edge="1" parent="1">
          <mxGeometry width="50" height="50" relative="1" as="geometry">
            <mxPoint x="316" y="239" as="sourcePoint" />
            <mxPoint x="327" y="259" as="targetPoint" />
          </mxGeometry>
        </mxCell>
        <mxCell id="kJiuvHtMfZ-OtqeLdr8D-25" value="" style="endArrow=classic;html=1;rounded=0;exitX=1.05;exitY=0.9;exitDx=0;exitDy=0;exitPerimeter=0;fillColor=#f5f5f5;strokeColor=#666666;" edge="1" parent="1">
          <mxGeometry width="50" height="50" relative="1" as="geometry">
            <mxPoint x="260.5" y="301" as="sourcePoint" />
            <mxPoint x="260.5" y="321" as="targetPoint" />
          </mxGeometry>
        </mxCell>
        <mxCell id="kJiuvHtMfZ-OtqeLdr8D-26" value="" style="endArrow=classic;html=1;rounded=0;exitX=1.05;exitY=0.9;exitDx=0;exitDy=0;exitPerimeter=0;fillColor=#e1d5e7;strokeColor=#9673a6;" edge="1" parent="1">
          <mxGeometry width="50" height="50" relative="1" as="geometry">
            <mxPoint x="340" y="300" as="sourcePoint" />
            <mxPoint x="340" y="320" as="targetPoint" />
          </mxGeometry>
        </mxCell>
        <mxCell id="kJiuvHtMfZ-OtqeLdr8D-27" value="" style="endArrow=classic;html=1;rounded=0;exitX=1.05;exitY=0.9;exitDx=0;exitDy=0;exitPerimeter=0;fillColor=#e1d5e7;strokeColor=#9673a6;" edge="1" parent="1">
          <mxGeometry width="50" height="50" relative="1" as="geometry">
            <mxPoint x="339.5" y="360" as="sourcePoint" />
            <mxPoint x="339.5" y="380" as="targetPoint" />
          </mxGeometry>
        </mxCell>
        <mxCell id="kJiuvHtMfZ-OtqeLdr8D-28" value="" style="endArrow=classic;html=1;rounded=0;fillColor=#f5f5f5;strokeColor=#666666;" edge="1" parent="1">
          <mxGeometry width="50" height="50" relative="1" as="geometry">
            <mxPoint x="283" y="238" as="sourcePoint" />
            <mxPoint x="268" y="258" as="targetPoint" />
          </mxGeometry>
        </mxCell>
        <mxCell id="kJiuvHtMfZ-OtqeLdr8D-30" value="&lt;b&gt;B3&lt;/b&gt;" style="text;html=1;strokeColor=none;fillColor=none;align=center;verticalAlign=middle;whiteSpace=wrap;rounded=0;" vertex="1" parent="1">
          <mxGeometry x="390" y="247" width="40" height="30" as="geometry" />
        </mxCell>
        <mxCell id="kJiuvHtMfZ-OtqeLdr8D-33" value="" style="ellipse;whiteSpace=wrap;html=1;aspect=fixed;fillColor=#f5f5f5;fontColor=#333333;strokeColor=#666666;" vertex="1" parent="1">
          <mxGeometry x="520" y="200" width="40" height="40" as="geometry" />
        </mxCell>
        <mxCell id="kJiuvHtMfZ-OtqeLdr8D-34" value="" style="ellipse;whiteSpace=wrap;html=1;aspect=fixed;fillColor=#f5f5f5;fontColor=#333333;strokeColor=#666666;" vertex="1" parent="1">
          <mxGeometry x="480" y="260" width="40" height="40" as="geometry" />
        </mxCell>
        <mxCell id="kJiuvHtMfZ-OtqeLdr8D-35" value="" style="ellipse;whiteSpace=wrap;html=1;aspect=fixed;fillColor=#f5f5f5;strokeColor=#666666;fontColor=#333333;" vertex="1" parent="1">
          <mxGeometry x="560" y="260" width="40" height="40" as="geometry" />
        </mxCell>
        <mxCell id="kJiuvHtMfZ-OtqeLdr8D-36" value="" style="ellipse;whiteSpace=wrap;html=1;aspect=fixed;fillColor=#f5f5f5;strokeColor=#666666;fontColor=#333333;" vertex="1" parent="1">
          <mxGeometry x="560" y="320" width="40" height="40" as="geometry" />
        </mxCell>
        <mxCell id="kJiuvHtMfZ-OtqeLdr8D-37" value="&lt;b&gt;80%&lt;/b&gt;" style="ellipse;whiteSpace=wrap;html=1;aspect=fixed;fillColor=#e1d5e7;strokeColor=#9673a6;" vertex="1" parent="1">
          <mxGeometry x="620" y="320" width="40" height="40" as="geometry" />
        </mxCell>
        <mxCell id="kJiuvHtMfZ-OtqeLdr8D-38" value="" style="ellipse;whiteSpace=wrap;html=1;aspect=fixed;fillColor=#f5f5f5;fontColor=#333333;strokeColor=#666666;" vertex="1" parent="1">
          <mxGeometry x="480" y="320" width="40" height="40" as="geometry" />
        </mxCell>
        <mxCell id="kJiuvHtMfZ-OtqeLdr8D-39" value="" style="endArrow=classic;html=1;rounded=0;fillColor=#f5f5f5;strokeColor=#666666;" edge="1" parent="1">
          <mxGeometry width="50" height="50" relative="1" as="geometry">
            <mxPoint x="603" y="297" as="sourcePoint" />
            <mxPoint x="623" y="321" as="targetPoint" />
          </mxGeometry>
        </mxCell>
        <mxCell id="kJiuvHtMfZ-OtqeLdr8D-40" value="" style="ellipse;whiteSpace=wrap;html=1;aspect=fixed;fillColor=#f5f5f5;strokeColor=#666666;fontColor=#333333;" vertex="1" parent="1">
          <mxGeometry x="560" y="380" width="40" height="40" as="geometry" />
        </mxCell>
        <mxCell id="kJiuvHtMfZ-OtqeLdr8D-41" value="" style="endArrow=classic;html=1;rounded=0;exitX=1.05;exitY=0.9;exitDx=0;exitDy=0;exitPerimeter=0;fillColor=#f5f5f5;strokeColor=#666666;" edge="1" parent="1">
          <mxGeometry width="50" height="50" relative="1" as="geometry">
            <mxPoint x="558" y="242" as="sourcePoint" />
            <mxPoint x="574" y="256" as="targetPoint" />
          </mxGeometry>
        </mxCell>
        <mxCell id="kJiuvHtMfZ-OtqeLdr8D-42" value="" style="endArrow=classic;html=1;rounded=0;exitX=1.05;exitY=0.9;exitDx=0;exitDy=0;exitPerimeter=0;fillColor=#f5f5f5;strokeColor=#666666;" edge="1" parent="1">
          <mxGeometry width="50" height="50" relative="1" as="geometry">
            <mxPoint x="500.5" y="301" as="sourcePoint" />
            <mxPoint x="500.5" y="321" as="targetPoint" />
          </mxGeometry>
        </mxCell>
        <mxCell id="kJiuvHtMfZ-OtqeLdr8D-43" value="" style="endArrow=classic;html=1;rounded=0;exitX=1.05;exitY=0.9;exitDx=0;exitDy=0;exitPerimeter=0;fillColor=#f5f5f5;strokeColor=#666666;" edge="1" parent="1">
          <mxGeometry width="50" height="50" relative="1" as="geometry">
            <mxPoint x="580" y="300" as="sourcePoint" />
            <mxPoint x="580" y="320" as="targetPoint" />
          </mxGeometry>
        </mxCell>
        <mxCell id="kJiuvHtMfZ-OtqeLdr8D-44" value="" style="endArrow=classic;html=1;rounded=0;exitX=1.05;exitY=0.9;exitDx=0;exitDy=0;exitPerimeter=0;fillColor=#f5f5f5;strokeColor=#666666;" edge="1" parent="1">
          <mxGeometry width="50" height="50" relative="1" as="geometry">
            <mxPoint x="579.5" y="360" as="sourcePoint" />
            <mxPoint x="579.5" y="380" as="targetPoint" />
          </mxGeometry>
        </mxCell>
        <mxCell id="kJiuvHtMfZ-OtqeLdr8D-45" value="" style="endArrow=classic;html=1;rounded=0;exitX=1.05;exitY=0.9;exitDx=0;exitDy=0;exitPerimeter=0;fillColor=#f5f5f5;strokeColor=#666666;" edge="1" parent="1">
          <mxGeometry width="50" height="50" relative="1" as="geometry">
            <mxPoint x="520" y="236" as="sourcePoint" />
            <mxPoint x="506" y="260" as="targetPoint" />
          </mxGeometry>
        </mxCell>
        <mxCell id="kJiuvHtMfZ-OtqeLdr8D-46" value="&lt;b&gt;B1&lt;/b&gt;" style="text;html=1;strokeColor=none;fillColor=none;align=center;verticalAlign=middle;whiteSpace=wrap;rounded=0;" vertex="1" parent="1">
          <mxGeometry x="200" y="190" width="40" height="30" as="geometry" />
        </mxCell>
        <mxCell id="kJiuvHtMfZ-OtqeLdr8D-48" value="0.5%" style="ellipse;whiteSpace=wrap;html=1;aspect=fixed;fillColor=#f5f5f5;strokeColor=#666666;fontColor=#333333;" vertex="1" parent="1">
          <mxGeometry x="622" y="380" width="40" height="40" as="geometry" />
        </mxCell>
        <mxCell id="kJiuvHtMfZ-OtqeLdr8D-49" value="" style="endArrow=classic;html=1;rounded=0;exitX=1.05;exitY=0.9;exitDx=0;exitDy=0;exitPerimeter=0;fillColor=#f5f5f5;strokeColor=#666666;" edge="1" parent="1">
          <mxGeometry width="50" height="50" relative="1" as="geometry">
            <mxPoint x="641.5" y="360" as="sourcePoint" />
            <mxPoint x="641.5" y="380" as="targetPoint" />
          </mxGeometry>
        </mxCell>
        <mxCell id="kJiuvHtMfZ-OtqeLdr8D-50" value="&lt;b&gt;19%&lt;/b&gt;" style="ellipse;whiteSpace=wrap;html=1;aspect=fixed;fillColor=#e1d5e7;strokeColor=#9673a6;" vertex="1" parent="1">
          <mxGeometry x="680" y="380" width="40" height="40" as="geometry" />
        </mxCell>
        <mxCell id="kJiuvHtMfZ-OtqeLdr8D-51" value="" style="endArrow=classic;html=1;rounded=0;exitX=1.05;exitY=0.9;exitDx=0;exitDy=0;exitPerimeter=0;fillColor=#e1d5e7;strokeColor=#9673a6;" edge="1" parent="1">
          <mxGeometry width="50" height="50" relative="1" as="geometry">
            <mxPoint x="664" y="359" as="sourcePoint" />
            <mxPoint x="684" y="378" as="targetPoint" />
          </mxGeometry>
        </mxCell>
        <mxCell id="kJiuvHtMfZ-OtqeLdr8D-52" value="0.5%" style="ellipse;whiteSpace=wrap;html=1;aspect=fixed;fillColor=#f5f5f5;strokeColor=#666666;fontColor=#333333;" vertex="1" parent="1">
          <mxGeometry x="680" y="260" width="40" height="40" as="geometry" />
        </mxCell>
        <mxCell id="kJiuvHtMfZ-OtqeLdr8D-53" value="" style="endArrow=classic;html=1;rounded=0;exitX=1.05;exitY=0.9;exitDx=0;exitDy=0;exitPerimeter=0;fillColor=#f5f5f5;strokeColor=#666666;" edge="1" parent="1">
          <mxGeometry width="50" height="50" relative="1" as="geometry">
            <mxPoint x="680" y="296" as="sourcePoint" />
            <mxPoint x="660" y="320" as="targetPoint" />
          </mxGeometry>
        </mxCell>
        <mxCell id="kJiuvHtMfZ-OtqeLdr8D-54" value="" style="endArrow=classic;html=1;rounded=0;exitX=1.05;exitY=0.9;exitDx=0;exitDy=0;exitPerimeter=0;fillColor=#f5f5f5;strokeColor=#666666;" edge="1" parent="1">
          <mxGeometry width="50" height="50" relative="1" as="geometry">
            <mxPoint x="699.5" y="305" as="sourcePoint" />
            <mxPoint x="700" y="370" as="targetPoint" />
          </mxGeometry>
        </mxCell>
        <mxCell id="kJiuvHtMfZ-OtqeLdr8D-58" value="&lt;b&gt;B4&lt;/b&gt;" style="text;html=1;strokeColor=none;fillColor=none;align=center;verticalAlign=middle;whiteSpace=wrap;rounded=0;" vertex="1" parent="1">
          <mxGeometry x="450" y="190" width="40" height="30" as="geometry" />
        </mxCell>
        <mxCell id="kJiuvHtMfZ-OtqeLdr8D-59" value="" style="curved=1;endArrow=classic;html=1;rounded=0;entryX=1;entryY=0;entryDx=0;entryDy=0;fillColor=#f5f5f5;strokeColor=#666666;" edge="1" parent="1">
          <mxGeometry width="50" height="50" relative="1" as="geometry">
            <mxPoint x="362" y="398" as="sourcePoint" />
            <mxPoint x="356.14213562373106" y="383.85786437626894" as="targetPoint" />
            <Array as="points">
              <mxPoint x="382" y="388" />
              <mxPoint x="382" y="368" />
              <mxPoint x="362" y="368" />
            </Array>
          </mxGeometry>
        </mxCell>
        <mxCell id="kJiuvHtMfZ-OtqeLdr8D-62" value="&lt;b&gt;B2&lt;/b&gt;" style="text;html=1;strokeColor=none;fillColor=none;align=center;verticalAlign=middle;whiteSpace=wrap;rounded=0;" vertex="1" parent="1">
          <mxGeometry x="220" y="247" width="30" height="23" as="geometry" />
        </mxCell>
      </root>
    </mxGraphModel>
  </diagram>
</mxfile>
